<svg fill="#000000" width="800px" height="800px" viewBox="0 0 24 24" id="github" data-name="Flat Color" xmlns="http://www.w3.org/2000/svg" class="icon flat-color"><path id="primary" d="M12,2A10,10,0,0,0,2,12c0,4.42,2.87,8.17,6.84,9.5.5.09.68-.22.68-.48s0-.85,0-1.66c-2.78.6-3.37-1.34-3.37-1.34A2.65,2.65,0,0,0,4.9,16.3c-.91-.62.07-.6.07-.6a2.09,2.09,0,0,1,1.53,1,2.12,2.12,0,0,0,2.91.83,2.1,2.1,0,0,1,.63-1.34c-2.22-.25-4.55-1.11-4.55-4.94,0-1.1.39-2,1-2.71a3.77,3.77,0,0,1,.1-2.67s.84-.27,2.75,1a9.64,9.64,0,0,1,5,0c1.91-1.27,2.75-1,2.75-1a3.77,3.77,0,0,1,.1,2.67,2.53,2.53,0,0,1,1,2.71c0,3.84-2.34,4.68-4.57,4.94a2.4,2.4,0,0,1,.67,1.87c0,1.34,0,2.42,0,2.75s.18.58.69.48A10,10,0,0,0,22,12,10,10,0,0,0,12,2Z" style="fill: rgb(0, 0, 0);"></path></svg>